<svg width="320" height="430" xmlns="http://www.w3.org/2000/svg"><g style="mix-blend-mode:darken" fill="#08F" fill-rule="evenodd"><path d="M319.527 49.943C285.6 19.006 239.59 0 188.92 0 84.583 0 0 80.589 0 180s84.583 180 188.92 180c50.67 0 96.68-19.006 130.607-49.943l-39.702-41.67c-23.426 21.875-55.512 35.363-90.905 35.363-71.732 0-129.882-55.405-129.882-123.75S117.188 56.25 188.92 56.25c35.393 0 67.479 13.488 90.905 35.362l39.702-41.67z"/><path d="M160 110l160 320H0l160-320zm0 120L60 430h200L160 230z"/></g></svg>