<?xml version="1.0" encoding="UTF-8" standalone="no"?>
<svg width="320px" height="430px" viewBox="0 0 320 430" version="1.1" xmlns="http://www.w3.org/2000/svg" xmlns:xlink="http://www.w3.org/1999/xlink">
    <!-- Generator: Sketch 45.2 (43514) - http://www.bohemiancoding.com/sketch -->
    <title>insignia</title>
    <desc>Created with Sketch.</desc>
    <defs></defs>
    <g id="Page-1" stroke="none" stroke-width="1" fill="none" fill-rule="evenodd">
        <g id="insignia" fill="#0088FF">
            <g id="see-aye" style="mix-blend-mode: darken;">
                <g id="Combined-Shape">
                    <path d="M319.527064,49.9427243 C285.600174,19.0055481 239.58982,0 188.920494,0 C84.5825862,0 0,80.588745 0,180 C0,279.411255 84.5825862,360 188.920494,360 C239.58982,360 285.600174,340.994452 319.527064,310.057276 L279.825089,268.387738 C256.398626,290.262452 224.312712,303.75 188.920494,303.75 C117.188182,303.75 59.0376544,248.345238 59.0376544,180 C59.0376544,111.654762 117.188182,56.25 188.920494,56.25 C224.312712,56.25 256.398626,69.7375478 279.825089,91.6122617 L319.527064,49.9427243 Z"></path>
                    <path d="M160,110 L320,430 L0,430 L160,110 Z M160,230 L60,430 L260,430 L160,230 Z"></path>
                </g>
            </g>
        </g>
    </g>
</svg>